<svg width="24" height="24" viewBox="0 0 24 24" fill="none" xmlns="http://www.w3.org/2000/svg">
<path d="M13.7765 7.8375C13.7765 8.44687 13.7765 9.0375 13.5844 9.59063C15.6047 11.9625 21.4359 18.7078 21.4359 18.7078L21.3 20.4094C21.3 20.4094 19.6687 21.9562 19.425 21.7219C18.7031 21.0187 18.2625 20.5406 18.2625 20.5406L17.9231 18.5086L15.7148 18.3459L15.5376 16.1522L13.2112 16.1077L13.1883 13.7597L10.7184 13.8581L10.2965 12.975C9.56998 13.2891 8.90904 13.4156 8.0606 13.4156C4.84966 13.4156 2.2481 10.9125 2.2481 7.82812C2.2481 4.74375 4.85154 2.25 8.06248 2.25C11.2734 2.25 13.7765 4.75312 13.7765 7.8375ZM4.92888 6.75C4.92888 7.11018 5.03569 7.46227 5.23579 7.76175C5.4359 8.06122 5.72031 8.29464 6.05307 8.43247C6.38584 8.57031 6.752 8.60637 7.10526 8.5361C7.45851 8.46584 7.783 8.29239 8.03769 8.03771C8.29237 7.78302 8.46581 7.45854 8.53608 7.10528C8.60635 6.75202 8.57028 6.38586 8.43245 6.0531C8.29461 5.72034 8.0612 5.43592 7.76172 5.23582C7.46224 5.03571 7.11016 4.92891 6.74998 4.92891C6.51076 4.92866 6.27384 4.9756 6.05278 5.06703C5.83173 5.15846 5.63087 5.29259 5.46172 5.46174C5.29257 5.6309 5.15843 5.83175 5.067 6.05281C4.97557 6.27386 4.92864 6.51078 4.92888 6.75Z" fill="black"/>
</svg>
